<?xml version="1.0" encoding="utf-8"?>
<!-- Generator: Adobe Illustrator 21.1.0, SVG Export Plug-In . SVG Version: 6.00 Build 0)  -->
<svg version="1.1" id="Layer_1" xmlns="http://www.w3.org/2000/svg" xmlns:xlink="http://www.w3.org/1999/xlink" x="0px" y="0px"
	 viewBox="0 0 300 300" style="enable-background:new 0 0 300 300;" xml:space="preserve">
<style type="text/css">
	.st0{fill:#364749;}
	.st1{fill:#485E60;}
	.st2{fill:#3F5356;}
	.st3{fill:#395154;}
	.st4{fill:#506768;}
	.st5{fill:#E5B738;}
	.st6{fill:#D68389;}
	.st7{fill:#E08C96;}
</style>
<g>
	<path class="st0" d="M300,150C300,67.2,232.8,0,150,0S0,67.2,0,150s67.2,150,150,150S300,232.8,300,150z"/>
	<path class="st0" d="M193,250.4l30.4,30.4c3.8-2.1,7.5-4.4,11.1-6.9L202,241.4L193,250.4z"/>
	
		<rect x="143.7" y="192" transform="matrix(0.7071 -0.7071 0.7071 0.7071 -96.3228 164.1821)" class="st0" width="12.7" height="12.7"/>
</g>
<rect x="169.6" y="193.9" transform="matrix(0.7071 -0.7071 0.7071 0.7071 -107.1006 190.1526)" class="st1" width="12.7" height="60.8"/>
<g>
	
		<rect x="101.5" y="141" transform="matrix(0.7071 -0.7071 0.7071 0.7071 -78.8728 122.0551)" class="st0" width="12.7" height="30.4"/>
	
		<rect x="125.8" y="161.5" transform="matrix(0.7071 -0.7071 0.7071 0.7071 -88.9119 146.283)" class="st0" width="12.7" height="38"/>
</g>
<path class="st2" d="M26.1,65.5c-2.4,3.6-4.7,7.3-6.9,11.1l43,43l8.9-8.9L26.1,65.5z"/>
<rect x="75.5" y="108.7" transform="matrix(0.7071 -0.7071 0.7071 0.7071 -68.1421 96.0654)" class="st0" width="12.7" height="43.1"/>
<path class="st3" d="M193,250.4l-43,43l6.5,6.5c24.2-1,47-7.8,67-19L193,250.4z"/>
<rect x="93.6" y="218" transform="matrix(0.7071 -0.7071 0.7071 0.7071 -122.3415 153.3958)" class="st1" width="60.8" height="12.7"/>
<rect x="119.6" y="220" transform="matrix(0.7071 -0.7071 0.7071 0.7071 -133.1044 179.3974)" class="st2" width="60.8" height="60.8"/>
<rect x="51.5" y="167.1" transform="matrix(0.7071 -0.7071 0.7071 0.7071 -104.9078 111.2835)" class="st3" width="60.8" height="30.4"/>
<rect x="75.7" y="187.4" transform="matrix(0.7071 -0.7071 0.7071 0.7071 -114.9087 135.4985)" class="st0" width="60.8" height="38"/>
<path class="st3" d="M62.2,119.5l-43-43c-11.2,20-18,42.7-19,67l19,19L62.2,119.5z"/>
<rect x="25.5" y="134.7" transform="matrix(0.7071 -0.7071 0.7071 0.7071 -94.1089 85.2967)" class="st1" width="60.8" height="43.1"/>
<g>
	<path class="st2" d="M228.8,214.5l34.1,34.1c6.8-7.7,12.8-16.2,17.8-25.2L250.4,193L228.8,214.5z"/>
	
		<rect x="176.9" y="149.9" transform="matrix(0.7071 -0.7071 0.7071 0.7071 -54.2199 181.6119)" class="st2" width="30.4" height="12.7"/>
</g>
<rect x="202.9" y="151.9" transform="matrix(0.7071 -0.7071 0.7071 0.7071 -65.0077 207.6253)" class="st0" width="30.4" height="60.8"/>
<g>
	
		<rect x="134.8" y="98.9" transform="matrix(0.7071 -0.7071 0.7071 0.7071 -36.794 139.4747)" class="st2" width="30.4" height="30.4"/>
	
		<rect x="159" y="119.3" transform="matrix(0.7071 -0.7071 0.7071 0.7071 -46.8183 163.6829)" class="st2" width="30.4" height="38"/>
	<path class="st2" d="M98,83.7l21.5-21.5l-43-43c-9,5.1-17.5,11.1-25.2,17.8L98,83.7z"/>
</g>
<g>
	
		<rect x="108.8" y="66.6" transform="matrix(0.7071 -0.7071 0.7071 0.7071 -26.0347 113.527)" class="st1" width="30.4" height="43.1"/>
	<path class="st1" d="M202,241.4l32.5,32.5c10.5-7.2,20.1-15.7,28.5-25.3l-34.1-34.1L202,241.4z"/>
</g>
<g>
	
		<rect x="148.9" y="174.1" transform="matrix(0.7071 -0.7071 0.7071 0.7071 -78.4246 171.6005)" class="st0" width="38" height="12.7"/>
	
		<rect x="174.9" y="176.1" transform="matrix(0.7071 -0.7071 0.7071 0.7071 -89.2089 197.5896)" class="st0" width="38" height="60.8"/>
	
		<rect x="106.8" y="123.1" transform="matrix(0.7071 -0.7071 0.7071 0.7071 -60.9863 129.4615)" class="st0" width="38" height="30.4"/>
	<rect x="131" y="143.5" transform="matrix(0.7071 -0.7071 0.7071 0.7071 -70.9946 153.6496)" class="st0" width="38" height="38"/>
	<path class="st0" d="M98,83.7L51.3,37c-9.6,8.4-18.1,18-25.3,28.5l45,45L98,83.7z"/>
</g>
<rect x="80.8" y="90.8" transform="matrix(0.7071 -0.7071 0.7071 0.7071 -50.2377 103.483)" class="st2" width="38" height="43.1"/>
<path class="st4" d="M250.4,193l30.4,30.4c7.7-13.7,13.3-28.7,16.4-44.6l-16.4-16.4L250.4,193z"/>
<g>
	
		<rect x="196.6" y="123.9" transform="matrix(0.7071 -0.7071 0.7071 0.7071 -28.2108 192.3731)" class="st1" width="43.1" height="12.7"/>
	
		<rect x="222.5" y="125.9" transform="matrix(0.7071 -0.7071 0.7071 0.7071 -39.0111 218.3554)" class="st1" width="43.1" height="60.8"/>
	
		<rect x="154.4" y="72.9" transform="matrix(0.7071 -0.7071 0.7071 0.7071 -10.7809 150.2631)" class="st1" width="43.1" height="30.4"/>
</g>
<rect x="178.6" y="93.4" transform="matrix(0.7071 -0.7071 0.7071 0.7071 -20.8422 174.4503)" class="st2" width="43.1" height="38"/>
<g>
	<path class="st1" d="M150,31.7L121.1,2.8c-15.9,3.1-30.9,8.7-44.6,16.4l43,43L150,31.7z"/>
	
		<rect x="128.5" y="40.7" transform="matrix(0.7071 -0.7071 0.7071 0.7071 -4.557249e-02 124.2994)" class="st1" width="43.1" height="43.1"/>
</g>
<polygon class="st5" points="265.4,113.2 177.3,113.2 150,29.4 122.7,113.2 34.6,113.2 105.9,165.1 78.7,248.9 150,197 221.3,248.9 
	194.1,165.1 "/>
<polygon class="st6" points="251.6,117.7 174,117.7 150,43.8 126,117.7 48.4,117.7 111.2,163.3 87.2,237.2 150,191.5 212.8,237.2 
	188.8,163.3 "/>
<polygon class="st7" points="251.6,117.7 174,117.7 150,43.8 126,117.7 48.4,117.7 111.2,163.3 "/>
</svg>
