<?xml version="1.0" encoding="iso-8859-1"?>
<!-- Generator: Adobe Illustrator 19.0.0, SVG Export Plug-In . SVG Version: 6.00 Build 0)  -->
<svg version="1.1" id="Layer_1" xmlns="http://www.w3.org/2000/svg" xmlns:xlink="http://www.w3.org/1999/xlink" x="0px" y="0px"
	 viewBox="0 0 496.2 496.2" style="enable-background:new 0 0 496.2 496.2;" xml:space="preserve">
<path style="fill:#32BEA6;" d="M496.2,248.1C496.2,111.1,385.1,0,248.1,0S0,111.1,0,248.1s111.1,248.1,248.1,248.1
	S496.2,385.1,496.2,248.1z"/>
<path style="fill:#9B9B9B;" d="M318.8,372.9c0,2.7-2.2,2.1-4.8,2.1h-76.7c-2.7,0-4.8,0.6-4.8-2.1v-3.3l11.3-16.9l-0.2-30.7
	c0-2.7,2.2-4.8,4.8-4.8h54.5c2.7,0,4.8,2.2,4.8,4.8l-0.2,30.8l11.3,16.9L318.8,372.9L318.8,372.9z"/>
<g>
	<g>
		<g id="SVGID_3_">
			<path id="SVGCleanerId_10" style="fill:#BFBFBF;" d="M318.8,369.6c0,2.7-2.2,2.1-4.8,2.1h-76.7c-2.7,0-4.8,0.6-4.8-2.1l11.3-19.7
				l-0.2-30.7c0-2.7,2.2-4.8,4.8-4.8h54.5c2.7,0,4.8,2.2,4.8,4.8l-0.2,30.8L318.8,369.6z"/>
		</g>
		<rect x="232.5" y="314.4" style="fill:#BFBFBF;" width="86.3" height="6.6"/>
		<rect x="232.5" y="321" style="fill:#BFBFBF;" width="86.3" height="0.4"/>
		<rect x="232.5" y="321.4" style="fill:#BFBFBF;" width="86.3" height="0.4"/>
		<rect x="232.5" y="321.9" style="fill:#BFBFBF;" width="86.3" height="0.4"/>
		<rect x="232.5" y="322.3" style="fill:#BFBFBF;" width="86.3" height="0.4"/>
		<rect x="232.5" y="322.7" style="fill:#BFBFBF;" width="86.3" height="0.4"/>
		<rect x="232.5" y="323.1" style="fill:#BFBFBF;" width="86.3" height="0.4"/>
		<rect x="232.5" y="323.5" style="fill:#BFBFBF;" width="86.3" height="0.4"/>
		<rect x="232.5" y="323.9" style="fill:#BFBFBF;" width="86.3" height="0.4"/>
		<rect x="232.5" y="324.3" style="fill:#BFBFBF;" width="86.3" height="0.4"/>
		<rect x="232.5" y="324.7" style="fill:#BFBFBF;" width="86.3" height="0.4"/>
		<rect x="232.5" y="325.2" style="fill:#BFBFBF;" width="86.3" height="0.4"/>
		<rect x="232.5" y="325.6" style="fill:#BFBFBF;" width="86.3" height="0.4"/>
		<rect x="232.5" y="326" style="fill:#BFBFBF;" width="86.3" height="0.4"/>
		<rect x="232.5" y="326.4" style="fill:#BFBFBF;" width="86.3" height="0.4"/>
		<rect x="232.5" y="326.8" style="fill:#BFBFBF;" width="86.3" height="0.4"/>
		<rect x="232.5" y="327.2" style="fill:#BFBFBF;" width="86.3" height="0.4"/>
		<rect x="232.5" y="327.6" style="fill:#BFBFBF;" width="86.3" height="0.4"/>
		<rect x="232.5" y="328" style="fill:#BFBFBF;" width="86.3" height="0.4"/>
		<rect x="232.5" y="328.5" style="fill:#BFBFBF;" width="86.3" height="0.4"/>
		<rect x="232.5" y="328.9" style="fill:#BFBFBF;" width="86.3" height="0.4"/>
		<rect x="232.5" y="329.3" style="fill:#BFBFBF;" width="86.3" height="0.4"/>
		<rect x="232.5" y="329.7" style="fill:#BFBFBF;" width="86.3" height="0.4"/>
		<rect x="232.5" y="330.1" style="fill:#BFBFBF;" width="86.3" height="0.4"/>
		<rect x="232.5" y="330.5" style="fill:#BFBFBF;" width="86.3" height="0.4"/>
		<rect x="232.5" y="330.9" style="fill:#BFBFBF;" width="86.3" height="0.4"/>
		<rect x="232.5" y="331.3" style="fill:#BFBFBF;" width="86.3" height="0.4"/>
		<rect x="232.5" y="331.8" style="fill:#BFBFBF;" width="86.3" height="0.4"/>
		<rect x="232.5" y="332.2" style="fill:#BFBFBF;" width="86.3" height="0.4"/>
		<rect x="232.5" y="332.6" style="fill:#BFBFBF;" width="86.3" height="0.4"/>
		<rect x="232.5" y="333" style="fill:#BFBFBF;" width="86.3" height="0.4"/>
		<rect x="232.5" y="333.4" style="fill:#BFBFBF;" width="86.3" height="0.4"/>
		<rect x="232.5" y="333.8" style="fill:#BFBFBF;" width="86.3" height="0.4"/>
		<rect x="232.5" y="334.2" style="fill:#BFBFBF;" width="86.3" height="0.4"/>
		<rect x="232.5" y="334.7" style="fill:#BFBFBF;" width="86.3" height="0.4"/>
		<rect x="232.5" y="335.1" style="fill:#BFBFBF;" width="86.3" height="0.4"/>
		<rect x="232.5" y="335.5" style="fill:#BFBFBF;" width="86.3" height="0.4"/>
		<rect x="232.5" y="335.9" style="fill:#BFBFBF;" width="86.3" height="0.4"/>
		<rect x="232.5" y="336.3" style="fill:#BFBFBF;" width="86.3" height="0.4"/>
		<rect x="232.5" y="336.7" style="fill:#BFBFBF;" width="86.3" height="0.4"/>
		<rect x="232.5" y="337.1" style="fill:#BFBFBF;" width="86.3" height="0.4"/>
		<rect x="232.5" y="337.5" style="fill:#BFBFBF;" width="86.3" height="0.4"/>
		<rect x="232.5" y="338" style="fill:#BFBFBF;" width="86.3" height="0.4"/>
		<rect x="232.5" y="338.4" style="fill:#BFBFBF;" width="86.3" height="0.4"/>
		<rect x="232.5" y="338.8" style="fill:#BFBFBF;" width="86.3" height="0.4"/>
		<rect x="232.5" y="339.2" style="fill:#BFBFBF;" width="86.3" height="0.4"/>
		<rect x="232.5" y="339.6" style="fill:#BFBFBF;" width="86.3" height="0.4"/>
		<rect x="232.5" y="340" style="fill:#BFBFBF;" width="86.3" height="0.4"/>
		<rect x="232.5" y="340.4" style="fill:#BFBFBF;" width="86.3" height="0.4"/>
		<rect x="232.5" y="340.8" style="fill:#BFBFBF;" width="86.3" height="0.4"/>
		<rect x="232.5" y="341.3" style="fill:#BFBFBF;" width="86.3" height="0.4"/>
		<rect x="232.5" y="341.7" style="fill:#BFBFBF;" width="86.3" height="0.4"/>
		<rect x="232.5" y="342.1" style="fill:#BFBFBF;" width="86.3" height="0.4"/>
		<rect x="232.5" y="342.5" style="fill:#BFBFBF;" width="86.3" height="0.4"/>
		<rect x="232.5" y="342.9" style="fill:#BFBFBF;" width="86.3" height="0.1"/>
		<rect x="232.5" y="343" style="fill:#BFBFBF;" width="86.3" height="0.1"/>
		<rect x="232.5" y="343.1" style="fill:#BFBFBF;" width="86.3" height="0.1"/>
		<rect x="232.5" y="343.2" style="fill:#BFBFBF;" width="86.3" height="0.1"/>
	</g>
	<rect id="SVGCleanerId_0" x="232.5" y="343.3" style="fill:#BFBFBF;" width="86.3" height="0.1"/>
	<g>
		<rect id="SVGCleanerId_0_1_" x="232.5" y="343.3" style="fill:#BFBFBF;" width="86.3" height="0.1"/>
	</g>
	<g>
		<rect x="232.5" y="343.4" style="fill:#BFBFBF;" width="86.3" height="0.1"/>
		<rect x="232.5" y="343.5" style="fill:#BFBFBF;" width="86.3" height="0.1"/>
		<rect x="232.5" y="343.6" style="fill:#BFBFBF;" width="86.3" height="0.1"/>
		<rect x="232.5" y="343.7" style="fill:#BFBFBF;" width="86.3" height="0.1"/>
		<rect x="232.5" y="343.8" style="fill:#BFBFBF;" width="86.3" height="0.1"/>
		<rect x="232.5" y="343.9" style="fill:#BFBFBF;" width="86.3" height="0.1"/>
		<rect x="232.5" y="344" style="fill:#BFBFBF;" width="86.3" height="0.1"/>
	</g>
	<rect id="SVGCleanerId_1" x="232.5" y="344.1" style="fill:#BFBFBF;" width="86.3" height="0.1"/>
	<g>
		<rect id="SVGCleanerId_1_1_" x="232.5" y="344.1" style="fill:#BFBFBF;" width="86.3" height="0.1"/>
	</g>
	<g>
		<rect x="232.5" y="344.2" style="fill:#BFBFBF;" width="86.3" height="0.1"/>
		<rect x="232.5" y="344.3" style="fill:#BFBFBF;" width="86.3" height="0.1"/>
		<rect x="232.5" y="344.4" style="fill:#BFBFBF;" width="86.3" height="0.1"/>
		<rect x="232.5" y="344.5" style="fill:#BFBFBF;" width="86.3" height="0.1"/>
		<rect x="232.5" y="344.6" style="fill:#BFBFBF;" width="86.3" height="0.1"/>
		<rect x="232.5" y="344.7" style="fill:#BFBFBF;" width="86.3" height="0.1"/>
	</g>
	<rect id="SVGCleanerId_2" x="232.5" y="344.8" style="fill:#BFBFBF;" width="86.3" height="0.1"/>
	<g>
		<rect id="SVGCleanerId_2_1_" x="232.5" y="344.8" style="fill:#BFBFBF;" width="86.3" height="0.1"/>
	</g>
	<g>
		<rect x="232.5" y="344.9" style="fill:#BFBFBF;" width="86.3" height="0.1"/>
		<rect x="232.5" y="345" style="fill:#BFBFBF;" width="86.3" height="0.1"/>
		<rect x="232.5" y="345.1" style="fill:#BFBFBF;" width="86.3" height="0.1"/>
		<rect x="232.5" y="345.2" style="fill:#BFBFBF;" width="86.3" height="0.1"/>
		<rect x="232.5" y="345.3" style="fill:#BFBFBF;" width="86.3" height="0.1"/>
		<rect x="232.5" y="345.4" style="fill:#BFBFBF;" width="86.3" height="0.1"/>
	</g>
	<rect id="SVGCleanerId_3" x="232.5" y="345.5" style="fill:#BFBFBF;" width="86.3" height="0.1"/>
	<g>
		<rect id="SVGCleanerId_3_1_" x="232.5" y="345.5" style="fill:#BFBFBF;" width="86.3" height="0.1"/>
	</g>
	<g>
		<rect x="232.5" y="345.6" style="fill:#BFBFBF;" width="86.3" height="0.1"/>
		<rect x="232.5" y="345.7" style="fill:#BFBFBF;" width="86.3" height="0.1"/>
		<rect x="232.5" y="345.8" style="fill:#BFBFBF;" width="86.3" height="0.1"/>
		<rect x="232.5" y="345.9" style="fill:#BFBFBF;" width="86.3" height="0.1"/>
		<rect x="232.5" y="346" style="fill:#BFBFBF;" width="86.3" height="0.1"/>
		<rect x="232.5" y="346.1" style="fill:#BFBFBF;" width="86.3" height="0.1"/>
		<rect x="232.5" y="346.2" style="fill:#BFBFBF;" width="86.3" height="0.1"/>
	</g>
	<rect id="SVGCleanerId_4" x="232.5" y="346.3" style="fill:#BFBFBF;" width="86.3" height="0.1"/>
	<g>
		<rect id="SVGCleanerId_4_1_" x="232.5" y="346.3" style="fill:#BFBFBF;" width="86.3" height="0.1"/>
	</g>
	<g>
		<rect x="232.5" y="346.4" style="fill:#BFBFBF;" width="86.3" height="0.1"/>
		<rect x="232.5" y="346.5" style="fill:#BFBFBF;" width="86.3" height="0.1"/>
		<rect x="232.5" y="346.6" style="fill:#BFBFBF;" width="86.3" height="0.1"/>
		<rect x="232.5" y="346.7" style="fill:#BFBFBF;" width="86.3" height="0.1"/>
		<rect x="232.5" y="346.8" style="fill:#BFBFBF;" width="86.3" height="0.1"/>
		<rect x="232.5" y="346.9" style="fill:#BFBFBF;" width="86.3" height="0.1"/>
	</g>
	<rect id="SVGCleanerId_5" x="232.5" y="347" style="fill:#BFBFBF;" width="86.3" height="0.1"/>
	<g>
		<rect id="SVGCleanerId_5_1_" x="232.5" y="347" style="fill:#BFBFBF;" width="86.3" height="0.1"/>
	</g>
	<g>
		<rect x="232.5" y="347.1" style="fill:#BFBFBF;" width="86.3" height="0.1"/>
		<rect x="232.5" y="347.2" style="fill:#BFBFBF;" width="86.3" height="0.1"/>
		<rect x="232.5" y="347.3" style="fill:#BFBFBF;" width="86.3" height="0.1"/>
		<rect x="232.5" y="347.4" style="fill:#BFBFBF;" width="86.3" height="0.1"/>
		<rect x="232.5" y="347.5" style="fill:#BFBFBF;" width="86.3" height="0.1"/>
		<rect x="232.5" y="347.6" style="fill:#BFBFBF;" width="86.3" height="0.1"/>
	</g>
	<rect id="SVGCleanerId_6" x="232.5" y="347.7" style="fill:#BFBFBF;" width="86.3" height="0.1"/>
	<g>
		<rect id="SVGCleanerId_6_1_" x="232.5" y="347.7" style="fill:#BFBFBF;" width="86.3" height="0.1"/>
	</g>
	<g>
		<rect x="232.5" y="347.8" style="fill:#BFBFBF;" width="86.3" height="0.1"/>
		<rect x="232.5" y="347.9" style="fill:#BFBFBF;" width="86.3" height="0.1"/>
		<rect x="232.5" y="348" style="fill:#BFBFBF;" width="86.3" height="0.1"/>
		<rect x="232.5" y="348.1" style="fill:#BFBFBF;" width="86.3" height="0.1"/>
		<rect x="232.5" y="348.2" style="fill:#BFBFBF;" width="86.3" height="0.1"/>
		<rect x="232.5" y="348.3" style="fill:#BFBFBF;" width="86.3" height="0.1"/>
	</g>
	<rect id="SVGCleanerId_7" x="232.5" y="348.4" style="fill:#BFBFBF;" width="86.3" height="0.1"/>
	<g>
		<rect id="SVGCleanerId_7_1_" x="232.5" y="348.4" style="fill:#BFBFBF;" width="86.3" height="0.1"/>
	</g>
	<g>
		<rect x="232.5" y="348.5" style="fill:#BFBFBF;" width="86.3" height="0.1"/>
		<rect x="232.5" y="348.6" style="fill:#BFBFBF;" width="86.3" height="0.1"/>
		<rect x="232.5" y="348.7" style="fill:#BFBFBF;" width="86.3" height="0.1"/>
		<rect x="232.5" y="348.8" style="fill:#BFBFBF;" width="86.3" height="0.1"/>
		<rect x="232.5" y="348.9" style="fill:#BFBFBF;" width="86.3" height="0.1"/>
		<rect x="232.5" y="349" style="fill:#BFBFBF;" width="86.3" height="0.1"/>
		<rect x="232.5" y="349.1" style="fill:#BFBFBF;" width="86.3" height="0.1"/>
	</g>
	<rect id="SVGCleanerId_8" x="232.5" y="349.2" style="fill:#BFBFBF;" width="86.3" height="0.1"/>
	<g>
		<rect id="SVGCleanerId_8_1_" x="232.5" y="349.2" style="fill:#BFBFBF;" width="86.3" height="0.1"/>
	</g>
	<g>
		<rect x="232.5" y="349.3" style="fill:#BFBFBF;" width="86.3" height="0.1"/>
		<rect x="232.5" y="349.4" style="fill:#BFBFBF;" width="86.3" height="0.1"/>
		<rect x="232.5" y="349.5" style="fill:#BFBFBF;" width="86.3" height="0.1"/>
		<rect x="232.5" y="349.6" style="fill:#BFBFBF;" width="86.3" height="0.1"/>
		<rect x="232.5" y="349.7" style="fill:#BFBFBF;" width="86.3" height="0.1"/>
		<rect x="232.5" y="349.8" style="fill:#BFBFBF;" width="86.3" height="0.1"/>
	</g>
	<rect id="SVGCleanerId_9" x="232.5" y="349.9" style="fill:#BFBFBF;" width="86.3" height="0.1"/>
	<g>
		<rect id="SVGCleanerId_9_1_" x="232.5" y="349.9" style="fill:#BFBFBF;" width="86.3" height="0.1"/>
	</g>
	<g>
		<rect x="232.5" y="350" style="fill:#BFBFBF;" width="86.3" height="0.1"/>
		<rect x="232.5" y="350.1" style="fill:#BFBFBF;" width="86.3" height="0.1"/>
		<rect x="232.5" y="350.2" style="fill:#BFBFBF;" width="86.3" height="0.6"/>
		<rect x="232.5" y="350.8" style="fill:#BFBFBF;" width="86.3" height="0.6"/>
		<rect x="232.5" y="351.4" style="fill:#BFBFBF;" width="86.3" height="0.6"/>
		<rect x="232.5" y="352.1" style="fill:#BFBFBF;" width="86.3" height="0.6"/>
		<rect x="232.5" y="352.7" style="fill:#BFBFBF;" width="86.3" height="0.6"/>
		<rect x="232.5" y="353.3" style="fill:#BFBFBF;" width="86.3" height="0.6"/>
		<rect x="232.5" y="353.9" style="fill:#BFBFBF;" width="86.3" height="0.6"/>
		<rect x="232.5" y="354.5" style="fill:#BFBFBF;" width="86.3" height="0.6"/>
		<rect x="232.5" y="355.1" style="fill:#BFBFBF;" width="86.3" height="0.6"/>
		<rect x="232.5" y="355.7" style="fill:#BFBFBF;" width="86.3" height="0.6"/>
		<rect x="232.5" y="356.4" style="fill:#BFBFBF;" width="86.3" height="0.6"/>
		<rect x="232.5" y="357" style="fill:#BFBFBF;" width="86.3" height="0.6"/>
		<rect x="232.5" y="357.6" style="fill:#BFBFBF;" width="86.3" height="0.6"/>
		<rect x="232.5" y="358.2" style="fill:#BFBFBF;" width="86.3" height="0.6"/>
		<rect x="232.5" y="358.8" style="fill:#BFBFBF;" width="86.3" height="0.6"/>
		<rect x="232.5" y="359.4" style="fill:#BFBFBF;" width="86.3" height="0.6"/>
		<rect x="232.5" y="360.1" style="fill:#BFBFBF;" width="86.3" height="0.6"/>
		<rect x="232.5" y="360.7" style="fill:#BFBFBF;" width="86.3" height="0.6"/>
		<rect x="232.5" y="361.3" style="fill:#BFBFBF;" width="86.3" height="0.6"/>
		<rect x="232.5" y="361.9" style="fill:#BFBFBF;" width="86.3" height="0.6"/>
		<rect x="232.5" y="362.5" style="fill:#BFBFBF;" width="86.3" height="0.6"/>
		<rect x="232.5" y="363.1" style="fill:#BFBFBF;" width="86.3" height="0.6"/>
		<rect x="232.5" y="363.7" style="fill:#BFBFBF;" width="86.3" height="0.6"/>
		<rect x="232.5" y="364.4" style="fill:#BFBFBF;" width="86.3" height="0.6"/>
		<rect x="232.5" y="365" style="fill:#BFBFBF;" width="86.3" height="0.6"/>
		<rect x="232.5" y="365.6" style="fill:#BFBFBF;" width="86.3" height="0.6"/>
		<rect x="232.5" y="366.2" style="fill:#BFBFBF;" width="86.3" height="0.6"/>
		<rect x="232.5" y="366.8" style="fill:#BFBFBF;" width="86.3" height="0.6"/>
		<rect x="232.5" y="367.4" style="fill:#BFBFBF;" width="86.3" height="0.6"/>
		<rect x="232.5" y="368.1" style="fill:#BFBFBF;" width="86.3" height="0.6"/>
		<rect x="232.5" y="368.7" style="fill:#BFBFBF;" width="86.3" height="0.6"/>
		<rect x="232.5" y="369.3" style="fill:#BFBFBF;" width="86.3" height="0.6"/>
		<rect x="232.5" y="369.9" style="fill:#BFBFBF;" width="86.3" height="0.6"/>
		<rect x="232.5" y="370.5" style="fill:#BFBFBF;" width="86.3" height="0.6"/>
		<rect x="232.5" y="371.1" style="fill:#BFBFBF;" width="86.3" height="0.6"/>
		<rect x="232.5" y="371.7" style="fill:#BFBFBF;" width="86.3" height="0.5"/>
	</g>
	<path style="fill:#202121;" d="M427.6,311c0,10-8.1,18.1-18.1,18.1H141.9c-10,0-18.1-8.1-18.1-18.1V131.8c0-10,8.1-18.1,18.1-18.1
		h267.5c10,0,18.1,8.1,18.1,18.1V311H427.6z"/>
	<rect x="136.8" y="125.9" style="fill:#666666;" width="277.2" height="188.8"/>
	<rect x="136.8" y="125.6" style="fill:#333333;" width="277.2" height="0.9"/>
	<path style="fill:#202121;" d="M203,370.8c0,7-3.9,11-11,11H79.6c-7,0-11-3.9-11-11V216c0-7,3.9-11,11-11h112.5c7,0,11,3.9,11,11
		v154.8H203z"/>
	<circle style="fill:#707070;" cx="136" cy="212.6" r="1.2"/>
	<rect x="78.8" y="219.9" style="fill:#666666;" width="114" height="146.6"/>
	<path style="fill:#202121;" d="M404.1,368.2c0,9.5-4.8,14.3-14.3,14.3h-48.5c-9.5,0-14.3-4.8-14.3-14.3v-117
		c0-9.5,4.8-14.3,14.3-14.3h48.5c9.5,0,14.3,4.8,14.3,14.3V368.2z"/>
	<path style="fill:#111111;" d="M371.5,372.5c0,3.2-2.6,5.7-5.7,5.7c-3.2,0-5.7-2.6-5.7-5.7s2.6-5.7,5.7-5.7
		C369,366.8,371.5,369.3,371.5,372.5z"/>
	<path style="fill:none;stroke:#202121;stroke-width:1.639;stroke-miterlimit:10;" d="M367.6,373.3c0,0.5-0.4,1-1,1h-1.7
		c-0.5,0-1-0.4-1-1v-1.7c0-0.5,0.4-1,1-1h1.7c0.5,0,1,0.4,1,1V373.3z"/>
	<path d="M374.6,247.6c0,0.9-0.7,1.7-1.7,1.7h-14.7c-0.9,0-1.7-0.7-1.7-1.7l0,0c0-0.9,0.7-1.7,1.7-1.7h14.7
		C373.9,246,374.6,246.7,374.6,247.6L374.6,247.6z"/>
	<rect x="331.6" y="255.1" style="fill:#666666;" width="67.7" height="106.3"/>
</g>
<g>
</g>
<g>
</g>
<g>
</g>
<g>
</g>
<g>
</g>
<g>
</g>
<g>
</g>
<g>
</g>
<g>
</g>
<g>
</g>
<g>
</g>
<g>
</g>
<g>
</g>
<g>
</g>
<g>
</g>
</svg>
