<?xml version="1.0" encoding="utf-8"?>
<!-- Generator: Adobe Illustrator 21.1.0, SVG Export Plug-In . SVG Version: 6.00 Build 0)  -->
<svg version="1.1" id="Layer_1" xmlns="http://www.w3.org/2000/svg" xmlns:xlink="http://www.w3.org/1999/xlink" x="0px" y="0px"
	 viewBox="0 0 300 300" style="enable-background:new 0 0 300 300;" xml:space="preserve">
<style type="text/css">
	.st0{fill:#32BEA6;}
	.st1{fill:#9B9B9B;}
	.st2{fill:#BFBFBF;}
	.st3{fill:#202121;}
	.st4{fill:#666666;}
	.st5{fill:#333333;}
	.st6{fill:#707070;}
	.st7{fill:#111111;}
	.st8{fill:none;stroke:#202121;stroke-width:1.639;stroke-miterlimit:10;}
</style>
<path class="st0" d="M300,150C300,67.2,232.8,0,150,0S0,67.2,0,150s67.2,150,150,150S300,232.8,300,150z"/>
<path class="st1" d="M192.7,225.5c0,1.6-1.3,1.3-2.9,1.3h-46.4c-1.6,0-2.9,0.4-2.9-1.3v-2l6.8-10.2l-0.1-18.6c0-1.6,1.3-2.9,2.9-2.9
	h33c1.6,0,2.9,1.3,2.9,2.9l-0.1,18.6l6.8,10.2V225.5L192.7,225.5z"/>
<g>
	<g>
		<g id="SVGID_3_">
			<path id="SVGCleanerId_10" class="st2" d="M192.7,223.5c0,1.6-1.3,1.3-2.9,1.3h-46.4c-1.6,0-2.9,0.4-2.9-1.3l6.8-11.9l-0.1-18.6
				c0-1.6,1.3-2.9,2.9-2.9h33c1.6,0,2.9,1.3,2.9,2.9l-0.1,18.6L192.7,223.5z"/>
		</g>
		<rect x="140.6" y="190.1" class="st2" width="52.2" height="4"/>
		<rect x="140.6" y="194.1" class="st2" width="52.2" height="0.2"/>
		<rect x="140.6" y="194.3" class="st2" width="52.2" height="0.2"/>
		<rect x="140.6" y="194.6" class="st2" width="52.2" height="0.2"/>
		<rect x="140.6" y="194.9" class="st2" width="52.2" height="0.2"/>
		<rect x="140.6" y="195.1" class="st2" width="52.2" height="0.2"/>
		<rect x="140.6" y="195.3" class="st2" width="52.2" height="0.2"/>
		<rect x="140.6" y="195.6" class="st2" width="52.2" height="0.2"/>
		<rect x="140.6" y="195.8" class="st2" width="52.2" height="0.2"/>
		<rect x="140.6" y="196.1" class="st2" width="52.2" height="0.2"/>
		<rect x="140.6" y="196.3" class="st2" width="52.2" height="0.2"/>
		<rect x="140.6" y="196.6" class="st2" width="52.2" height="0.2"/>
		<rect x="140.6" y="196.9" class="st2" width="52.2" height="0.2"/>
		<rect x="140.6" y="197.1" class="st2" width="52.2" height="0.2"/>
		<rect x="140.6" y="197.3" class="st2" width="52.2" height="0.2"/>
		<rect x="140.6" y="197.6" class="st2" width="52.2" height="0.2"/>
		<rect x="140.6" y="197.8" class="st2" width="52.2" height="0.2"/>
		<rect x="140.6" y="198.1" class="st2" width="52.2" height="0.2"/>
		<rect x="140.6" y="198.3" class="st2" width="52.2" height="0.2"/>
		<rect x="140.6" y="198.6" class="st2" width="52.2" height="0.2"/>
		<rect x="140.6" y="198.9" class="st2" width="52.2" height="0.2"/>
		<rect x="140.6" y="199.1" class="st2" width="52.2" height="0.2"/>
		<rect x="140.6" y="199.3" class="st2" width="52.2" height="0.2"/>
		<rect x="140.6" y="199.6" class="st2" width="52.2" height="0.2"/>
		<rect x="140.6" y="199.8" class="st2" width="52.2" height="0.2"/>
		<rect x="140.6" y="200.1" class="st2" width="52.2" height="0.2"/>
		<rect x="140.6" y="200.3" class="st2" width="52.2" height="0.2"/>
		<rect x="140.6" y="200.6" class="st2" width="52.2" height="0.2"/>
		<rect x="140.6" y="200.8" class="st2" width="52.2" height="0.2"/>
		<rect x="140.6" y="201.1" class="st2" width="52.2" height="0.2"/>
		<rect x="140.6" y="201.3" class="st2" width="52.2" height="0.2"/>
		<rect x="140.6" y="201.6" class="st2" width="52.2" height="0.2"/>
		<rect x="140.6" y="201.8" class="st2" width="52.2" height="0.2"/>
		<rect x="140.6" y="202.1" class="st2" width="52.2" height="0.2"/>
		<rect x="140.6" y="202.4" class="st2" width="52.2" height="0.2"/>
		<rect x="140.6" y="202.6" class="st2" width="52.2" height="0.2"/>
		<rect x="140.6" y="202.8" class="st2" width="52.2" height="0.2"/>
		<rect x="140.6" y="203.1" class="st2" width="52.2" height="0.2"/>
		<rect x="140.6" y="203.3" class="st2" width="52.2" height="0.2"/>
		<rect x="140.6" y="203.6" class="st2" width="52.2" height="0.2"/>
		<rect x="140.6" y="203.8" class="st2" width="52.2" height="0.2"/>
		<rect x="140.6" y="204.1" class="st2" width="52.2" height="0.2"/>
		<rect x="140.6" y="204.4" class="st2" width="52.2" height="0.2"/>
		<rect x="140.6" y="204.6" class="st2" width="52.2" height="0.2"/>
		<rect x="140.6" y="204.8" class="st2" width="52.2" height="0.2"/>
		<rect x="140.6" y="205.1" class="st2" width="52.2" height="0.2"/>
		<rect x="140.6" y="205.3" class="st2" width="52.2" height="0.2"/>
		<rect x="140.6" y="205.6" class="st2" width="52.2" height="0.2"/>
		<rect x="140.6" y="205.8" class="st2" width="52.2" height="0.2"/>
		<rect x="140.6" y="206" class="st2" width="52.2" height="0.2"/>
		<rect x="140.6" y="206.3" class="st2" width="52.2" height="0.2"/>
		<rect x="140.6" y="206.6" class="st2" width="52.2" height="0.2"/>
		<rect x="140.6" y="206.8" class="st2" width="52.2" height="0.2"/>
		<rect x="140.6" y="207.1" class="st2" width="52.2" height="0.2"/>
		<rect x="140.6" y="207.3" class="st2" width="52.2" height="0.1"/>
		<rect x="140.6" y="207.4" class="st2" width="52.2" height="0.1"/>
		<rect x="140.6" y="207.4" class="st2" width="52.2" height="0.1"/>
		<rect x="140.6" y="207.5" class="st2" width="52.2" height="0.1"/>
	</g>
	<rect id="SVGCleanerId_0" x="140.6" y="207.6" class="st2" width="52.2" height="0.1"/>
	<g>
		<rect id="SVGCleanerId_0_1_" x="140.6" y="207.6" class="st2" width="52.2" height="0.1"/>
	</g>
	<g>
		<rect x="140.6" y="207.6" class="st2" width="52.2" height="0.1"/>
		<rect x="140.6" y="207.7" class="st2" width="52.2" height="0.1"/>
		<rect x="140.6" y="207.7" class="st2" width="52.2" height="0.1"/>
		<rect x="140.6" y="207.8" class="st2" width="52.2" height="0.1"/>
		<rect x="140.6" y="207.9" class="st2" width="52.2" height="0.1"/>
		<rect x="140.6" y="207.9" class="st2" width="52.2" height="0.1"/>
		<rect x="140.6" y="208" class="st2" width="52.2" height="0.1"/>
	</g>
	<rect id="SVGCleanerId_1" x="140.6" y="208" class="st2" width="52.2" height="0.1"/>
	<g>
		<rect id="SVGCleanerId_1_1_" x="140.6" y="208" class="st2" width="52.2" height="0.1"/>
	</g>
	<g>
		<rect x="140.6" y="208.1" class="st2" width="52.2" height="0.1"/>
		<rect x="140.6" y="208.2" class="st2" width="52.2" height="0.1"/>
		<rect x="140.6" y="208.2" class="st2" width="52.2" height="0.1"/>
		<rect x="140.6" y="208.3" class="st2" width="52.2" height="0.1"/>
		<rect x="140.6" y="208.3" class="st2" width="52.2" height="0.1"/>
		<rect x="140.6" y="208.4" class="st2" width="52.2" height="0.1"/>
	</g>
	<rect id="SVGCleanerId_2" x="140.6" y="208.5" class="st2" width="52.2" height="0.1"/>
	<g>
		<rect id="SVGCleanerId_2_1_" x="140.6" y="208.5" class="st2" width="52.2" height="0.1"/>
	</g>
	<g>
		<rect x="140.6" y="208.5" class="st2" width="52.2" height="0.1"/>
		<rect x="140.6" y="208.6" class="st2" width="52.2" height="0.1"/>
		<rect x="140.6" y="208.6" class="st2" width="52.2" height="0.1"/>
		<rect x="140.6" y="208.7" class="st2" width="52.2" height="0.1"/>
		<rect x="140.6" y="208.8" class="st2" width="52.2" height="0.1"/>
		<rect x="140.6" y="208.8" class="st2" width="52.2" height="0.1"/>
	</g>
	<rect id="SVGCleanerId_3" x="140.6" y="208.9" class="st2" width="52.2" height="0.1"/>
	<g>
		<rect id="SVGCleanerId_3_1_" x="140.6" y="208.9" class="st2" width="52.2" height="0.1"/>
	</g>
	<g>
		<rect x="140.6" y="208.9" class="st2" width="52.2" height="0.1"/>
		<rect x="140.6" y="209" class="st2" width="52.2" height="0.1"/>
		<rect x="140.6" y="209.1" class="st2" width="52.2" height="0.1"/>
		<rect x="140.6" y="209.1" class="st2" width="52.2" height="0.1"/>
		<rect x="140.6" y="209.2" class="st2" width="52.2" height="0.1"/>
		<rect x="140.6" y="209.3" class="st2" width="52.2" height="0.1"/>
		<rect x="140.6" y="209.3" class="st2" width="52.2" height="0.1"/>
	</g>
	<rect id="SVGCleanerId_4" x="140.6" y="209.4" class="st2" width="52.2" height="0.1"/>
	<g>
		<rect id="SVGCleanerId_4_1_" x="140.6" y="209.4" class="st2" width="52.2" height="0.1"/>
	</g>
	<g>
		<rect x="140.6" y="209.4" class="st2" width="52.2" height="0.1"/>
		<rect x="140.6" y="209.5" class="st2" width="52.2" height="0.1"/>
		<rect x="140.6" y="209.6" class="st2" width="52.2" height="0.1"/>
		<rect x="140.6" y="209.6" class="st2" width="52.2" height="0.1"/>
		<rect x="140.6" y="209.7" class="st2" width="52.2" height="0.1"/>
		<rect x="140.6" y="209.7" class="st2" width="52.2" height="0.1"/>
	</g>
	<rect id="SVGCleanerId_5" x="140.6" y="209.8" class="st2" width="52.2" height="0.1"/>
	<g>
		<rect id="SVGCleanerId_5_1_" x="140.6" y="209.8" class="st2" width="52.2" height="0.1"/>
	</g>
	<g>
		<rect x="140.6" y="209.9" class="st2" width="52.2" height="0.1"/>
		<rect x="140.6" y="209.9" class="st2" width="52.2" height="0.1"/>
		<rect x="140.6" y="210" class="st2" width="52.2" height="0.1"/>
		<rect x="140.6" y="210" class="st2" width="52.2" height="0.1"/>
		<rect x="140.6" y="210.1" class="st2" width="52.2" height="0.1"/>
		<rect x="140.6" y="210.2" class="st2" width="52.2" height="0.1"/>
	</g>
	<rect id="SVGCleanerId_6" x="140.6" y="210.2" class="st2" width="52.2" height="0.1"/>
	<g>
		<rect id="SVGCleanerId_6_1_" x="140.6" y="210.2" class="st2" width="52.2" height="0.1"/>
	</g>
	<g>
		<rect x="140.6" y="210.3" class="st2" width="52.2" height="0.1"/>
		<rect x="140.6" y="210.3" class="st2" width="52.2" height="0.1"/>
		<rect x="140.6" y="210.4" class="st2" width="52.2" height="0.1"/>
		<rect x="140.6" y="210.5" class="st2" width="52.2" height="0.1"/>
		<rect x="140.6" y="210.5" class="st2" width="52.2" height="0.1"/>
		<rect x="140.6" y="210.6" class="st2" width="52.2" height="0.1"/>
	</g>
	<rect id="SVGCleanerId_7" x="140.6" y="210.6" class="st2" width="52.2" height="0.1"/>
	<g>
		<rect id="SVGCleanerId_7_1_" x="140.6" y="210.6" class="st2" width="52.2" height="0.1"/>
	</g>
	<g>
		<rect x="140.6" y="210.7" class="st2" width="52.2" height="0.1"/>
		<rect x="140.6" y="210.8" class="st2" width="52.2" height="0.1"/>
		<rect x="140.6" y="210.8" class="st2" width="52.2" height="0.1"/>
		<rect x="140.6" y="210.9" class="st2" width="52.2" height="0.1"/>
		<rect x="140.6" y="210.9" class="st2" width="52.2" height="0.1"/>
		<rect x="140.6" y="211" class="st2" width="52.2" height="0.1"/>
		<rect x="140.6" y="211.1" class="st2" width="52.2" height="0.1"/>
	</g>
	<rect id="SVGCleanerId_8" x="140.6" y="211.1" class="st2" width="52.2" height="0.1"/>
	<g>
		<rect id="SVGCleanerId_8_1_" x="140.6" y="211.1" class="st2" width="52.2" height="0.1"/>
	</g>
	<g>
		<rect x="140.6" y="211.2" class="st2" width="52.2" height="0.1"/>
		<rect x="140.6" y="211.2" class="st2" width="52.2" height="0.1"/>
		<rect x="140.6" y="211.3" class="st2" width="52.2" height="0.1"/>
		<rect x="140.6" y="211.4" class="st2" width="52.2" height="0.1"/>
		<rect x="140.6" y="211.4" class="st2" width="52.2" height="0.1"/>
		<rect x="140.6" y="211.5" class="st2" width="52.2" height="0.1"/>
	</g>
	<rect id="SVGCleanerId_9" x="140.6" y="211.5" class="st2" width="52.2" height="0.1"/>
	<g>
		<rect id="SVGCleanerId_9_1_" x="140.6" y="211.5" class="st2" width="52.2" height="0.1"/>
	</g>
	<g>
		<rect x="140.6" y="211.6" class="st2" width="52.2" height="0.1"/>
		<rect x="140.6" y="211.7" class="st2" width="52.2" height="0.1"/>
		<rect x="140.6" y="211.7" class="st2" width="52.2" height="0.4"/>
		<rect x="140.6" y="212.1" class="st2" width="52.2" height="0.4"/>
		<rect x="140.6" y="212.5" class="st2" width="52.2" height="0.4"/>
		<rect x="140.6" y="212.9" class="st2" width="52.2" height="0.4"/>
		<rect x="140.6" y="213.2" class="st2" width="52.2" height="0.4"/>
		<rect x="140.6" y="213.6" class="st2" width="52.2" height="0.4"/>
		<rect x="140.6" y="214" class="st2" width="52.2" height="0.4"/>
		<rect x="140.6" y="214.3" class="st2" width="52.2" height="0.4"/>
		<rect x="140.6" y="214.7" class="st2" width="52.2" height="0.4"/>
		<rect x="140.6" y="215.1" class="st2" width="52.2" height="0.4"/>
		<rect x="140.6" y="215.5" class="st2" width="52.2" height="0.4"/>
		<rect x="140.6" y="215.8" class="st2" width="52.2" height="0.4"/>
		<rect x="140.6" y="216.2" class="st2" width="52.2" height="0.4"/>
		<rect x="140.6" y="216.6" class="st2" width="52.2" height="0.4"/>
		<rect x="140.6" y="216.9" class="st2" width="52.2" height="0.4"/>
		<rect x="140.6" y="217.3" class="st2" width="52.2" height="0.4"/>
		<rect x="140.6" y="217.7" class="st2" width="52.2" height="0.4"/>
		<rect x="140.6" y="218.1" class="st2" width="52.2" height="0.4"/>
		<rect x="140.6" y="218.4" class="st2" width="52.2" height="0.4"/>
		<rect x="140.6" y="218.8" class="st2" width="52.2" height="0.4"/>
		<rect x="140.6" y="219.2" class="st2" width="52.2" height="0.4"/>
		<rect x="140.6" y="219.5" class="st2" width="52.2" height="0.4"/>
		<rect x="140.6" y="219.9" class="st2" width="52.2" height="0.4"/>
		<rect x="140.6" y="220.3" class="st2" width="52.2" height="0.4"/>
		<rect x="140.6" y="220.7" class="st2" width="52.2" height="0.4"/>
		<rect x="140.6" y="221" class="st2" width="52.2" height="0.4"/>
		<rect x="140.6" y="221.4" class="st2" width="52.2" height="0.4"/>
		<rect x="140.6" y="221.8" class="st2" width="52.2" height="0.4"/>
		<rect x="140.6" y="222.1" class="st2" width="52.2" height="0.4"/>
		<rect x="140.6" y="222.6" class="st2" width="52.2" height="0.4"/>
		<rect x="140.6" y="222.9" class="st2" width="52.2" height="0.4"/>
		<rect x="140.6" y="223.3" class="st2" width="52.2" height="0.4"/>
		<rect x="140.6" y="223.6" class="st2" width="52.2" height="0.4"/>
		<rect x="140.6" y="224" class="st2" width="52.2" height="0.4"/>
		<rect x="140.6" y="224.4" class="st2" width="52.2" height="0.4"/>
		<rect x="140.6" y="224.7" class="st2" width="52.2" height="0.3"/>
	</g>
	<path class="st3" d="M258.5,188c0,6-4.9,10.9-10.9,10.9H85.8c-6,0-10.9-4.9-10.9-10.9V79.7c0-6,4.9-10.9,10.9-10.9h161.7
		c6,0,10.9,4.9,10.9,10.9L258.5,188L258.5,188z"/>
	<rect x="82.7" y="76.1" class="st4" width="167.6" height="114.1"/>
	<rect x="82.7" y="75.9" class="st5" width="167.6" height="0.5"/>
	<path class="st3" d="M122.7,224.2c0,4.2-2.4,6.7-6.7,6.7h-68c-4.2,0-6.7-2.4-6.7-6.7v-93.6c0-4.2,2.4-6.7,6.7-6.7h68
		c4.2,0,6.7,2.4,6.7,6.7L122.7,224.2L122.7,224.2z"/>
	<circle class="st6" cx="82.2" cy="128.5" r="0.7"/>
	<rect x="47.6" y="133" class="st4" width="68.9" height="88.6"/>
	<path class="st3" d="M244.3,222.6c0,5.7-2.9,8.6-8.6,8.6h-29.3c-5.7,0-8.6-2.9-8.6-8.6v-70.7c0-5.7,2.9-8.6,8.6-8.6h29.3
		c5.7,0,8.6,2.9,8.6,8.6V222.6z"/>
	<path class="st7" d="M224.6,225.2c0,1.9-1.6,3.4-3.4,3.4c-1.9,0-3.4-1.6-3.4-3.4c0-1.9,1.6-3.4,3.4-3.4
		C223.1,221.8,224.6,223.3,224.6,225.2z"/>
	<path class="st8" d="M222.2,225.7c0,0.3-0.2,0.6-0.6,0.6h-1c-0.3,0-0.6-0.2-0.6-0.6v-1c0-0.3,0.2-0.6,0.6-0.6h1
		c0.3,0,0.6,0.2,0.6,0.6V225.7z"/>
	<path d="M226.5,149.7c0,0.5-0.4,1-1,1h-8.9c-0.5,0-1-0.4-1-1l0,0c0-0.5,0.4-1,1-1h8.9C226.1,148.7,226.5,149.2,226.5,149.7
		L226.5,149.7z"/>
	<rect x="200.5" y="154.2" class="st4" width="40.9" height="64.3"/>
</g>
</svg>
