<?xml version="1.0" encoding="utf-8"?>
<!-- Generator: Adobe Illustrator 21.1.0, SVG Export Plug-In . SVG Version: 6.00 Build 0)  -->
<svg version="1.1" id="Layer_1" xmlns="http://www.w3.org/2000/svg" xmlns:xlink="http://www.w3.org/1999/xlink" x="0px" y="0px"
	 viewBox="0 0 300 300" style="enable-background:new 0 0 300 300;" xml:space="preserve">
<style type="text/css">
	.st0{fill:#EA4949;}
	.st1{fill:#E3E2E2;}
	.st2{fill:#CDCCCB;}
	.st3{fill:#CBCBC9;}
	.st4{fill:#D2D2D2;}
	.st5{fill:#DCDBDC;}
	.st6{fill:#A4A5A4;}
</style>
<path class="st0" d="M300,150C300,67.2,232.8,0,150,0S0,67.2,0,150s67.2,150,150,150S300,232.8,300,150z"/>
<path class="st1" d="M150,66.1c-46.3,0-83.9,37.5-83.9,83.9s37.5,83.9,83.9,83.9s83.9-37.5,83.9-83.9S196.3,66.1,150,66.1z
	 M150.9,158.1c-5.1,0-9.2-4.1-9.2-9.2s4.1-9.3,9.2-9.3s9.3,4.1,9.3,9.3C160.2,154,156,158.1,150.9,158.1z"/>
<path class="st2" d="M199.2,87.1c-34.8-27.1-84.9-21-112.1,13.7c-27.1,34.7-21,84.9,13.7,112.1s84.9,21,112.1-13.7
	C240,164.4,233.9,114.3,199.2,87.1z M145.9,156.6c-3.8-3-4.5-8.5-1.5-12.3c3-3.8,8.5-4.5,12.3-1.5s4.5,8.5,1.5,12.3
	C155.3,158.9,149.8,159.6,145.9,156.6z"/>
<path class="st3" d="M198.2,88.3c-34-26.7-83.3-20.7-109.9,13.4c-26.7,34-20.6,83.3,13.4,109.9s83.3,20.6,109.9-13.4
	S232.3,115,198.2,88.3z M146,156.5c-3.7-2.9-4.4-8.3-1.5-12.1c2.9-3.7,8.3-4.4,12.1-1.5c3.7,2.9,4.4,8.3,1.5,12.1
	C155.1,158.8,149.8,159.4,146,156.5z"/>
<path class="st4" d="M157.2,156c-3,3-7.9,3.4-11.4,0.7c-3.4-2.7-4.2-7.5-2-11.2l-55.5-43.5c-26.6,34-20.6,83.1,13.4,109.7
	c34,26.6,83.1,20.6,109.7-13.4L157.2,156z"/>
<g>
	<path class="st5" d="M150.9,122.2c-14.7,0-26.7,11.9-26.7,26.7c0,14.7,11.9,26.7,26.7,26.7c14.7,0,26.7-11.9,26.7-26.7
		C177.6,134.2,165.7,122.2,150.9,122.2z M150.9,158.1c-5.1,0-9.2-4.1-9.2-9.2s4.1-9.3,9.2-9.3s9.3,4.1,9.3,9.3
		C160.2,154,156,158.1,150.9,158.1z"/>
	<path class="st5" d="M116.4,140.8l-33.1-7c4.2-21,18.5-38.3,37.7-46.4l15.9,30.1C126.5,120.9,118.5,129.8,116.4,140.8z"/>
	<path class="st5" d="M178.9,212.6L163,182.5c10.5-3.4,18.4-12.3,20.5-23.3l33.1,7C212.5,187.1,198.1,204.4,178.9,212.6z"/>
</g>
<path class="st6" d="M150.9,134.8c-7.7,0-14,6.3-14,14c0,7.7,6.3,14,14,14s14-6.3,14-14C165,141.1,158.7,134.8,150.9,134.8z
	 M150.9,158.3c-5.2,0-9.4-4.2-9.4-9.4c0-5.2,4.2-9.4,9.4-9.4c5.2,0,9.4,4.2,9.4,9.4C160.3,154.1,156.1,158.3,150.9,158.3z"/>
</svg>
