<!--<?xml version="1.0" encoding="utf-8"?>-->
<!-- Generator: Adobe Illustrator 21.1.0, SVG Export Plug-In . SVG Version: 6.00 Build 0)  -->
<?xml-stylesheet type="text/css" href="../style.css"?>
<svg version="1.1" id="compass" xmlns="http://www.w3.org/2000/svg" xmlns:xlink="http://www.w3.org/1999/xlink" x="0px" y="0px"
	 viewBox="0 0 300 300" style="enable-background:new 0 0 300 300;" xml:space="preserve">
    
<path id="out-boarder" fill="#CCD0D2" d="M150,0c82.7,0,150,67.3,150,150s-67.3,150-150,150S0,233,0,150C0,67.3,67.3,0,150,0z"/>
<path id="bg" fill="#EFEFEF" d="M150,13.8c75.2,0,136.2,60.9,136.2,136.2S225.2,286.2,150,286.2S13.8,225.2,13.8,150S74.8,13.8,150,13.8z"/>
<path id="ins-boarder" fill="#CCD0D2" d="M150,82c-37.5,0-68,30.5-68,68s30.5,68,68,68s68-30.5,68-68S187.5,82,150,82z M150,208.6
	c-32.3,0-58.6-26.3-58.6-58.6s26.3-58.6,58.6-58.6s58.6,26.3,58.6,58.6S182.3,208.6,150,208.6z"/>
<path id="dots" fill="#CCD0D2" d="M150,37.5c-4,0-7,3-7,7s3,7,7,7c4,0,7-3,7-7C157,40.8,154,37.5,150,37.5z M150,248.4c-4,0-7,3-7,7c0,4,3,7,7,7
	c4,0,7-3,7-7C157,251.5,154,248.4,150,248.4z M255.5,143c-4,0-7,3-7,7c0,4,3,7,7,7s7-3,7-7C262.5,146.2,259.5,143,255.5,143z
	 M44.5,143c-4,0-7,3-7,7c0,4,3,7,7,7s7-3,7-7C51.6,146.2,48.5,143,44.5,143z M220.1,217.7c-2.8,2.8-2.8,7.3,0,10.1
	c2.8,2.8,7.3,2.8,10.1,0s2.8-7.3,0-10.1C227.3,214.9,222.9,214.9,220.1,217.7z M70.1,72.4c-2.8,2.8-2.8,7.3,0,10.1
	c2.8,2.8,7.3,2.8,10.1,0c2.8-2cam.8,2.8-7.3,0-10.1C77.1,69.6,72.7,69.6,70.1,72.4z"/>
    
<g id="pointer">
<path id="pointe-br" fill="#BF392B" d="M231.8,68.2c5.2,5.2-57.2,95.9-62.6,101c-5.2,5.2-95.9,67.7-101.3,62.6c-5.2-5.2,57.4-96.1,62.6-101
C135.7,125.6,226.4,62.8,231.8,68.2z"/>
<path id="pointer-tr" fill="#E2574C" d="M170.6,168c10.1-12.7,66.3-94.7,61.2-99.6c-5.4-5.4-91.6,54.1-100.5,61.9L170.6,168z"/>
<path class="pointer-bl" fill="#C64D41" d="M130.8,130.8c-4.9,4.9-66.6,94-62.6,100.8L231.6,68.2C224.1,64.5,135.7,125.9,130.8,130.8z"/>
<path class="pointer-tl" fill="#E5685E" d="M131.2,130.3l19.5,18.8l80.9-80.9C224.3,64.5,140.2,122.8,131.2,130.3z"/>
</g>
    
<path class="shade1" fill="#AC3327" d="M147.7,140.6c6.6,0,11.7,5.2,11.7,11.7c0,6.6-5.2,11.7-11.7,11.7c-6.6,0-11.7-5.2-11.7-11.7
	C135.9,145.8,141.1,140.6,147.7,140.6z"/>
<path class="shade2" fill="#BF392B" d="M147.7,140.6c-6.6,0-11.7,5.2-11.7,11.7c0,3,1.2,6.1,3.3,8.2l16.6-16.6C153.7,141.8,150.7,140.6,147.7,140.6z"
	/>
    
<path id="center" fill="#EFEFEF" d="M150,138.3c6.6,0,11.7,5.2,11.7,11.7s-5.2,11.7-11.7,11.7c-6.6,0-11.7-5.2-11.7-11.7
	C138.3,143.4,143.4,138.3,150,138.3z"/>
</svg>
