<?xml version="1.0" encoding="iso-8859-1"?>
<!-- Generator: Adobe Illustrator 19.0.0, SVG Export Plug-In . SVG Version: 6.00 Build 0)  -->
<?xml-stylesheet type="text/css" href="../../css/style.css"?>
<svg version="1.1" id="mic" xmlns="http://www.w3.org/2000/svg" xmlns:xlink="http://www.w3.org/1999/xlink" x="0px" y="0px" viewBox="0 0 511.998 511.998" style="enable-background:new 0 0 511.998 511.998;" xml:space="preserve">
<g>
	<circle cx="255.995" cy="162.26" r="25.597" />
</g>
<g>
	<path d="M307.19,59.776c0-4.71,3.823-8.524,8.533-8.524h59.727c0-17.295-11.527-32.406-29.01-37.688l-1.049-0.316    C286.942-4.422,225.099-4.413,166.574,13.257l-2.713,0.819c-16.092,4.855-27.33,20.137-27.33,37.167h59.727    c4.71,0,8.532,3.823,8.532,8.532c0,4.71-3.823,8.532-8.532,8.532h-59.727v17.065h42.662c4.71,0,8.532,3.823,8.532,8.532    s-3.823,8.532-8.532,8.532h-42.662v17.065h42.662c4.71,0,8.532,3.823,8.532,8.533c0,4.71-3.823,8.532-8.532,8.532h-42.662v17.065    h42.662c4.71,0,8.532,3.823,8.532,8.532c0,4.71-3.823,8.532-8.532,8.532h-42.662v17.065h42.662c4.71,0,8.532,3.823,8.532,8.532    c0,4.71-3.823,8.532-8.532,8.532h-42.662v17.065h42.662c4.71,0,8.532,3.823,8.532,8.532c0,4.71-3.823,8.533-8.532,8.533h-42.662    v17.065h59.727c4.71,0,8.532,3.823,8.532,8.532c0,4.71-3.823,8.532-8.532,8.532h-59.727c0,17.671,11.536,33.029,28.695,38.217    c10.247,3.097,20.623,5.452,31.041,7.483v90.495c0,9.591,7.867,17.389,17.543,17.389h16.587v76.792    c0,4.71,3.823,8.533,8.532,8.533h34.13c4.71,0,8.532-3.823,8.532-8.533v-76.792h16.587c9.676,0,17.543-7.799,17.543-17.389    v-90.495c10.418-2.022,20.794-4.386,31.041-7.483c17.159-5.179,28.686-20.538,28.686-38.217h-59.727    c-4.71,0-8.532-3.823-8.532-8.532c0-4.71,3.823-8.532,8.532-8.532h59.727v-17.065h-42.662c-4.71,0-8.532-3.823-8.532-8.533    c0-4.71,3.823-8.532,8.532-8.532h42.662v-17.065h-42.662c-4.71,0-8.532-3.823-8.532-8.532c0-4.71,3.823-8.532,8.532-8.532h42.662    v-17.065h-42.662c-4.71,0-8.532-3.823-8.532-8.532c0-4.71,3.823-8.532,8.532-8.532h42.662v-17.065h-42.662    c-4.71,0-8.532-3.823-8.532-8.532c0-4.71,3.823-8.533,8.532-8.533h42.662v-17.065h-42.662c-4.71,0-8.532-3.823-8.532-8.532    s3.823-8.532,8.532-8.532h42.662V68.309h-59.727C311.012,68.309,307.19,64.486,307.19,59.776z M264.527,494.941h-17.065v-68.26    h17.065V494.941z M281.592,384.019c0,4.71-3.823,8.532-8.532,8.532h-34.13c-4.71,0-8.533-3.823-8.533-8.532v-34.13    c0-4.71,3.823-8.532,8.533-8.532h34.13c4.71,0,8.532,3.823,8.532,8.532V384.019z M255.995,204.948    c-23.524,0-42.662-19.138-42.662-42.662s19.138-42.662,42.662-42.662s42.662,19.138,42.662,42.662    S279.519,204.948,255.995,204.948z" />
</g>
<g>
	<rect x="247.462" y="358.422" width="17.065" height="17.065" />
</g>
<g id="micInside">
	<path d="M415.612,104.947c-3.328-3.336-8.729-3.336-12.065,0s-3.336,8.729,0,12.065c14.522,14.522,22.517,33.584,22.517,53.695    s-7.995,39.173-22.517,53.695c-3.336,3.336-3.336,8.729,0,12.065c1.664,1.664,3.848,2.5,6.032,2.5s4.369-0.836,6.032-2.5    c17.748-17.739,27.517-41.092,27.517-65.76S433.359,122.686,415.612,104.947z" />
	<path d="M108.451,224.402c-30.111-30.111-30.111-77.279,0-107.39c3.328-3.336,3.328-8.729,0-12.065    c-3.336-3.336-8.729-3.336-12.065,0c-36.877,36.877-36.877,94.642,0,131.52c1.664,1.664,3.848,2.5,6.032,2.5    s4.369-0.836,6.032-2.5C111.787,233.131,111.787,227.738,108.451,224.402z" />
</g>
<g id="micOutside">
	<path d="M466.534,70.553c-3.473-3.191-8.882-2.935-12.056,0.546c-3.183,3.481-2.935,8.874,0.546,12.056    c25.589,23.379,39.753,54.198,39.889,86.775c0.136,32.952-14.044,64.343-39.941,88.379c-3.447,3.208-3.652,8.609-0.444,12.065    c1.681,1.809,3.968,2.722,6.254,2.722c2.082,0,4.164-0.751,5.811-2.278c29.429-27.33,45.546-63.183,45.393-100.965    C511.824,132.456,495.681,97.183,466.534,70.553z" />
	<path d="M17.085,169.931c0.136-32.577,14.3-63.405,39.889-86.775c3.481-3.183,3.729-8.575,0.546-12.056    c-3.183-3.473-8.575-3.729-12.065-0.546C16.3,97.191,0.165,132.456,0.012,169.862c-0.154,37.773,15.964,73.627,45.393,100.965    c1.647,1.527,3.729,2.278,5.811,2.278c2.287,0,4.573-0.913,6.254-2.722c3.2-3.456,3.003-8.857-0.444-12.065    C31.138,234.266,16.957,202.883,17.085,169.931z" />
</g>
</svg>