<?xml version="1.0" encoding="utf-8"?>
<!-- Generator: Adobe Illustrator 21.1.0, SVG Export Plug-In . SVG Version: 6.00 Build 0)  -->
<?xml-stylesheet type="text/css" href="../style.css"?>
<svg version="1.1" id="tickets" xmlns="http://www.w3.org/2000/svg" xmlns:xlink="http://www.w3.org/1999/xlink" x="0px" y="0px"
	 viewBox="0 0 300 300" style="enable-background:new 0 0 300 300;" xml:space="preserve">
<g>    
<circle id="bg" fill="#FFD05A" cx="150" cy="150" r="150"/>
    
<g id="2">
    <path id="2-btm" fill="#D7ECED" d="M60.5,173.8l137.6,49.5c2.1-5.9,8.7-9,14.6-6.9l17.1-47.4c-5.9-2.1-9-8.7-6.9-14.6L85.3,104.8
		c-2.1,5.9-8.7,9-14.6,6.9l-17.1,47.4C59.6,161.3,62.6,167.8,60.5,173.8z M194.7,149.8l-2.9-1l1-2.9l2.9,1L194.7,149.8z
		 M192.7,155.5l-2.9-1l1-2.9l2.9,1L192.7,155.5z M190.6,161.3l-2.9-1l1-2.9l2.9,1L190.6,161.3z M188.5,167.1l-2.9-1l1-2.9l2.9,1
		L188.5,167.1z M170,209.3l2.9,1l-1,2.9l-2.9-1L170,209.3z M172.1,203.6l2.9,1l-1,2.9l-2.9-1L172.1,203.6z M174.2,197.8l2.9,1
		l-1,2.9l-2.9-1L174.2,197.8z M176.3,192l2.9,1l-1,2.9l-2.9-1L176.3,192z M172.9,173.8c2-5.5,8.1-8.4,13.6-6.4
		c5.5,2,8.4,8.1,6.4,13.6c-1.8,4.9-6.8,7.7-11.8,6.8l-0.9,2.4l-2.9-1l0.8-2.3C173.4,184.4,171,178.9,172.9,173.8z"/>
	<path id="2-top" fill="#E64500" d="M85.3,104.8l85.9,30.9l-24.8,68.9l-85.9-30.9c2.1-5.9-0.9-12.5-6.9-14.6l17.1-47.4
		C76.6,113.8,83.2,110.8,85.3,104.8z"/>
</g>
    
<g id="1">
	<path id="1-btm" fill="#FFFFFF" d="M71,100.8v50.4c6.3,0,11.4,5.1,11.4,11.4h146.2c0-6.3,5.1-11.4,11.4-11.4v-50.4c-6.3,0-11.4-5.1-11.4-11.4
		H82.4C82.4,95.7,77.3,100.8,71,100.8z M200.6,160.5h-3.1v-3.1h3.1V160.5z M200.6,154.3h-3.1v-3.1h3.1V154.3z M200.6,148.2h-3.1
		v-3.1h3.1V148.2z M200.6,142.1h-3.1V139h3.1V142.1z M197.5,89.9h3.1V93h-3.1V89.9z M197.5,96.1h3.1v3.1h-3.1V96.1z M197.5,102.2
		h3.1v3.1h-3.1V102.2z M197.5,108.3h3.1v3.1h-3.1V108.3z M197.5,116.9v-2.5h3.1v2.5c5,0.9,8.7,5.2,8.7,10.4
		c0,5.9-4.7,10.6-10.6,10.6c-5.9,0-10.6-4.7-10.6-10.6C188.2,122,192.3,117.5,197.5,116.9z"/>
	<path id="1-top" fill="#FC611F" d="M82.4,162.6h91.2V89.4H82.4c0,6.3-5.1,11.4-11.4,11.4v50.4C77.3,151.2,82.4,156.3,82.4,162.6z"/>
</g>
</g>
</svg>
